<svg data-v-fde0c5aa="" xmlns="http://www.w3.org/2000/svg" viewBox="0 0 300 300" class="iconAbove"><!----><defs data-v-fde0c5aa=""><!----></defs><rect data-v-fde0c5aa="" fill="#423833" x="0" y="0" width="300px" height="300px" class="logo-background-square"></rect><defs data-v-fde0c5aa=""><!----></defs><g data-v-fde0c5aa="" id="5245872d-9525-4f07-bc37-09230275cd58" fill="#ffffff" transform="matrix(4.716125430122157,0,0,4.716125430122157,17.54761486628946,155.27425884128556)"><path d="M5.04 9.20L5.04 9.20Q6.15 9.41 6.68 9.96L6.68 9.96L6.68 9.96Q7.21 10.51 7.21 11.35L7.21 11.35L7.21 11.35Q7.21 12.43 6.37 13.08L6.37 13.08L6.37 13.08Q5.53 13.72 4.03 13.72L4.03 13.72L0.52 13.72L0.52 13.20L1.76 12.91L1.76 5.96L0.52 5.67L0.52 5.15L4.02 5.15L4.02 5.15Q5.53 5.15 6.24 5.71L6.24 5.71L6.24 5.71Q6.94 6.26 6.94 7.21L6.94 7.21L6.94 7.21Q6.94 8.02 6.45 8.53L6.45 8.53L6.45 8.53Q5.95 9.03 5.04 9.20L5.04 9.20ZM3.72 8.95L3.72 8.95Q4.55 8.95 5.04 8.55L5.04 8.55L5.04 8.55Q5.53 8.16 5.53 7.31L5.53 7.31L5.53 7.31Q5.53 6.58 5.10 6.21L5.10 6.21L5.10 6.21Q4.66 5.84 3.96 5.84L3.96 5.84L3.96 5.84Q3.67 5.84 3.15 5.95L3.15 5.95L3.15 8.95L3.72 8.95ZM3.15 12.95L3.15 12.95Q3.49 13.05 3.93 13.05L3.93 13.05L3.93 13.05Q4.75 13.05 5.25 12.62L5.25 12.62L5.25 12.62Q5.75 12.19 5.75 11.28L5.75 11.28L5.75 11.28Q5.75 10.43 5.20 10.00L5.20 10.00L5.20 10.00Q4.65 9.58 3.65 9.58L3.65 9.58L3.15 9.58L3.15 12.95ZM11.66 13.87L11.66 13.87Q10.01 13.87 9.23 12.94L9.23 12.94L9.23 12.94Q8.44 12.01 8.44 10.32L8.44 10.32L8.44 10.32Q8.44 8.51 9.25 7.61L9.25 7.61L9.25 7.61Q10.05 6.71 11.51 6.71L11.51 6.71L11.51 6.71Q12.89 6.71 13.54 7.35L13.54 7.35L13.54 7.35Q14.20 7.99 14.20 9.37L14.20 9.37L14.20 9.37Q14.20 9.73 14.15 10.14L14.15 10.14L9.95 10.14L9.95 10.54L9.95 10.54Q9.95 11.77 10.48 12.40L10.48 12.40L10.48 12.40Q11.00 13.03 11.97 13.03L11.97 13.03L11.97 13.03Q12.87 13.03 14.01 12.71L14.01 12.71L14.11 13.20L14.11 13.20Q13.55 13.55 12.98 13.71L12.98 13.71L12.98 13.71Q12.40 13.87 11.66 13.87L11.66 13.87ZM9.98 9.56L12.74 9.41L12.74 9.10L12.74 9.10Q12.74 8.29 12.47 7.89L12.47 7.89L12.47 7.89Q12.21 7.49 11.59 7.49L11.59 7.49L11.59 7.49Q10.75 7.49 10.39 7.97L10.39 7.97L10.39 7.97Q10.04 8.46 9.98 9.56L9.98 9.56ZM17.60 7.27L17.60 7.27Q18.07 7.07 18.77 6.89L18.77 6.89L18.77 6.89Q19.47 6.71 20.09 6.71L20.09 6.71L20.09 6.71Q20.89 6.71 21.40 7.06L21.40 7.06L21.40 7.06Q21.91 7.42 21.91 8.22L21.91 8.22L21.91 12.91L23.13 13.26L23.13 13.72L19.47 13.72L19.47 13.26L20.52 12.91L20.52 8.53L20.52 8.53Q20.52 8.16 20.42 7.97L20.42 7.97L20.42 7.97Q20.31 7.78 20.05 7.71L20.05 7.71L20.05 7.71Q19.78 7.64 19.26 7.64L19.26 7.64L19.26 7.64Q18.34 7.64 17.60 7.85L17.60 7.85L17.60 12.91L18.65 13.26L18.65 13.72L15.01 13.72L15.01 13.26L16.21 12.91L16.21 7.81L15.01 7.67L15.01 7.22L17.15 6.71L17.60 6.71L17.60 7.27ZM27.93 13.55L27.93 13.55Q27.52 13.66 26.84 13.76L26.84 13.76L26.84 13.76Q26.17 13.85 25.80 13.85L25.80 13.85L25.80 13.85Q24.67 13.85 24.67 12.71L24.67 12.71L24.67 7.64L23.65 7.64L23.65 7.10L24.79 6.69L25.41 5.29L26.04 5.29L26.04 6.85L28.13 6.85L28.13 7.76L26.04 7.64L26.04 12.80L27.93 13.08L27.93 13.55ZM33.33 9.20L33.33 9.20Q34.44 9.41 34.97 9.96L34.97 9.96L34.97 9.96Q35.50 10.51 35.50 11.35L35.50 11.35L35.50 11.35Q35.50 12.43 34.66 13.08L34.66 13.08L34.66 13.08Q33.82 13.72 32.33 13.72L32.33 13.72L28.81 13.72L28.81 13.20L30.06 12.91L30.06 5.96L28.81 5.67L28.81 5.15L32.31 5.15L32.31 5.15Q33.82 5.15 34.53 5.71L34.53 5.71L34.53 5.71Q35.24 6.26 35.24 7.21L35.24 7.21L35.24 7.21Q35.24 8.02 34.74 8.53L34.74 8.53L34.74 8.53Q34.24 9.03 33.33 9.20L33.33 9.20ZM32.02 8.95L32.02 8.95Q32.84 8.95 33.33 8.55L33.33 8.55L33.33 8.55Q33.82 8.16 33.82 7.31L33.82 7.31L33.82 7.31Q33.82 6.58 33.39 6.21L33.39 6.21L33.39 6.21Q32.96 5.84 32.26 5.84L32.26 5.84L32.26 5.84Q31.96 5.84 31.44 5.95L31.44 5.95L31.44 8.95L32.02 8.95ZM31.44 12.95L31.44 12.95Q31.78 13.05 32.23 13.05L32.23 13.05L32.23 13.05Q33.04 13.05 33.54 12.62L33.54 12.62L33.54 12.62Q34.05 12.19 34.05 11.28L34.05 11.28L34.05 11.28Q34.05 10.43 33.50 10.00L33.50 10.00L33.50 10.00Q32.94 9.58 31.95 9.58L31.95 9.58L31.44 9.58L31.44 12.95ZM39.51 7.56L39.51 7.56Q38.85 7.56 38.23 7.76L38.23 7.76L37.91 8.95L37.37 8.95L37.13 7.22L37.13 7.22Q38.53 6.71 39.83 6.71L39.83 6.71L39.83 6.71Q40.89 6.71 41.45 7.06L41.45 7.06L41.45 7.06Q42.01 7.42 42.01 8.30L42.01 8.30L42.01 12.80L43.22 13.09L43.22 13.55L43.22 13.55Q42.43 13.78 41.72 13.78L41.72 13.78L41.72 13.78Q41.33 13.78 41.03 13.58L41.03 13.58L41.03 13.58Q40.74 13.38 40.66 13.02L40.66 13.02L40.66 13.02Q40.08 13.44 39.52 13.66L39.52 13.66L39.52 13.66Q38.96 13.87 38.35 13.87L38.35 13.87L38.35 13.87Q37.62 13.87 37.20 13.37L37.20 13.37L37.20 13.37Q36.79 12.87 36.79 12.15L36.79 12.15L36.79 12.15Q36.79 11.48 37.18 10.92L37.18 10.92L37.18 10.92Q37.56 10.36 38.57 10.18L38.57 10.18L40.63 9.80L40.63 8.68L40.63 8.68Q40.63 8.11 40.38 7.83L40.38 7.83L40.38 7.83Q40.14 7.56 39.51 7.56L39.51 7.56ZM39.35 10.70L39.35 10.70Q38.21 10.92 38.21 11.94L38.21 11.94L38.21 11.94Q38.21 12.92 39.14 12.92L39.14 12.92L39.14 12.92Q39.75 12.92 40.63 12.45L40.63 12.45L40.63 10.47L39.35 10.70ZM46.58 7.49L46.58 7.49Q45.95 7.49 45.60 7.74L45.60 7.74L45.60 7.74Q45.25 7.98 45.25 8.41L45.25 8.41L45.25 8.41Q45.25 8.82 45.44 9.04L45.44 9.04L45.44 9.04Q45.64 9.25 46.14 9.44L46.14 9.44L47.33 9.84L47.33 9.84Q48.19 10.14 48.52 10.56L48.52 10.56L48.52 10.56Q48.85 10.98 48.85 11.72L48.85 11.72L48.85 11.72Q48.85 12.71 48.15 13.29L48.15 13.29L48.15 13.29Q47.46 13.86 46.16 13.86L46.16 13.86L46.16 13.86Q45.65 13.86 45.06 13.76L45.06 13.76L45.06 13.76Q44.46 13.66 44.00 13.50L44.00 13.50L44.20 11.77L44.74 11.77L45.04 12.94L45.04 12.94Q45.60 13.10 46.19 13.10L46.19 13.10L46.19 13.10Q47.63 13.10 47.63 11.97L47.63 11.97L47.63 11.97Q47.63 11.63 47.40 11.42L47.40 11.42L47.40 11.42Q47.18 11.20 46.58 10.99L46.58 10.99L45.50 10.63L45.50 10.63Q44.76 10.35 44.42 9.91L44.42 9.91L44.42 9.91Q44.09 9.48 44.09 8.76L44.09 8.76L44.09 8.76Q44.09 7.78 44.72 7.25L44.72 7.25L44.72 7.25Q45.35 6.71 46.61 6.71L46.61 6.71L46.61 6.71Q47.60 6.71 48.58 7.14L48.58 7.14L48.37 8.72L47.84 8.72L47.54 7.70L47.54 7.70Q47.36 7.62 47.09 7.55L47.09 7.55L47.09 7.55Q46.82 7.49 46.58 7.49L46.58 7.49ZM53.12 13.87L53.12 13.87Q51.46 13.87 50.68 12.94L50.68 12.94L50.68 12.94Q49.90 12.01 49.90 10.32L49.90 10.32L49.90 10.32Q49.90 8.51 50.70 7.61L50.70 7.61L50.70 7.61Q51.51 6.71 52.96 6.71L52.96 6.71L52.96 6.71Q54.35 6.71 55.00 7.35L55.00 7.35L55.00 7.35Q55.65 7.99 55.65 9.37L55.65 9.37L55.65 9.37Q55.65 9.73 55.61 10.14L55.61 10.14L51.41 10.14L51.41 10.54L51.41 10.54Q51.41 11.77 51.93 12.40L51.93 12.40L51.93 12.40Q52.46 13.03 53.42 13.03L53.42 13.03L53.42 13.03Q54.32 13.03 55.47 12.71L55.47 12.71L55.57 13.20L55.57 13.20Q55.01 13.55 54.43 13.71L54.43 13.71L54.43 13.71Q53.86 13.87 53.12 13.87L53.12 13.87ZM51.44 9.56L54.19 9.41L54.19 9.10L54.19 9.10Q54.19 8.29 53.93 7.89L53.93 7.89L53.93 7.89Q53.66 7.49 53.05 7.49L53.05 7.49L53.05 7.49Q52.21 7.49 51.85 7.97L51.85 7.97L51.85 7.97Q51.49 8.46 51.44 9.56L51.44 9.56Z"></path></g><defs data-v-fde0c5aa=""><!----></defs><g data-v-fde0c5aa="" id="4bd59c6d-57fa-4532-abc4-a58ad04d7806" stroke="none" fill="#D1793F" transform="matrix(2.5702881570224294,0,0,2.5702881570224294,108.87538826203223,79.31308423146169)"><path d="M27.377 11.377L16 0 4.623 11.377 16 22.753l11.377-11.376zM16 6.026l5.35 5.35L16 16.727l-5.35-5.35L16 6.026zM27.426 14.969l-5.664 5.664V32h5.664zM10.238 20.633l-5.664-5.664V32h5.664z"></path></g><!----></svg>